# xmcd
#
# Track frame offsets:
#	182
#	16522
#	33430
#	51865
#	74030
#	88505
#	108600
#	130975
#	144875
#
# Disc length: 2217 seconds
#
# Revision: 0
# Processed by: cddbd v1.5.2PL0 Copyright (c) Steve Scherf et al.
# Submitted via: audiograbber 1.83.01
#
DISCID=7608a709
DTITLE=Subway - Good Times
DYEAR=1995
DGENRE=Rap
TTITLE0=Subway, Easy, Twista - Chi-Town Ride
TTITLE1=Subway - The Better The Love
TTITLE2=Subway - Fire
TTITLE3=Subway, 702 - This LiL' Game We Play
TTITLE4=Subway - Get Da Money
TTITLE5=Subway - This Is Not A Goodbye
TTITLE6=Subway - Sticky Situation
TTITLE7=Subway - Get Da Money(Phat Pocket's Remix)
TTITLE8=Subway - Goodtimes
EXTD=www.RapMusicGuide.com
EXTT0=
EXTT1=
EXTT2=
EXTT3=
EXTT4=
EXTT5=
EXTT6=
EXTT7=
EXTT8=
PLAYORDER=
